# xmcd
#
# Track frame offsets:
#       150
#       23237
#       39392
#       58972
#       73692
#       92845
#       115337
#       135000
#       153567
#       170512
#
# Disc length: 2523 seconds
#
# Revision: 3
# Processed by: cddbd v1.5PL3 Copyright (c) Steve Scherf et al.
# Submitted via: WaveLab 4.01
#
DISCID=8309d90a
DTITLE=Delbert McClinton - Delbert McClinton
DYEAR=1900
DGENRE=Country
TTITLE0=The Sun Medley (With Danny Gatton)
TTITLE1=Tell Me About It (Duet With Tanya Tucker)
TTITLE2=Weatherman (From The Motion Picture Ground Hog Day)
TTITLE3=Mary Lou
TTITLE4=Have A Little Faith In Me
TTITLE5=The Wanderer (From The Motion Picture One Hot Summer)
TTITLE6=Just You And Me
TTITLE7=One More Last Chance
TTITLE8=Lay Around And Love On You
TTITLE9=He Will Break Your Heart
EXTD=
EXTT0=
EXTT1=
EXTT2=
EXTT3=
EXTT4=
EXTT5=
EXTT6=
EXTT7=
EXTT8=
EXTT9=
PLAYORDER=
